<svg xmlns="http://www.w3.org/2000/svg" width="32" height="35" viewBox="0 0 32 35">
    <g fill="#A3C0CC" fill-rule="nonzero">
        <path d="M27.733 4.267V.533h-1.066v4.8h4.8V4.267z"/>
        <path d="M9.6 1.067h17.38l3.953 3.954V28.8h-5.866v1.067h6.4a.533.533 0 0 0 .533-.534V4.8a.533.533 0 0 0-.156-.377L27.577.156A.533.533 0 0 0 27.2 0H9.067a.533.533 0 0 0-.534.533v28.8c0 .295.24.534.534.534h6.4V28.8H9.6V1.067z"/>
        <path d="M20.608 30.524a.533.533 0 0 0-.683 0L17.6 32.46V27.2h-1.067v6.4c0 .452.528.7.875.41l2.859-2.382 2.858 2.382c.348.29.875.042.875-.41v-6.4h-1.067v5.261l-2.325-1.937z"/>
        <path d="M27.733 20.267c0 .907-.57 1.696-1.392 2a6.322 6.322 0 0 1-.378.908c.111.26.17.538.17.825A2.134 2.134 0 0 1 24 26.133c-.287 0-.565-.059-.825-.17a6.322 6.322 0 0 1-.908.378 2.133 2.133 0 0 1-4 0 6.322 6.322 0 0 1-.91-.378c-.259.111-.537.17-.824.17A2.134 2.134 0 0 1 14.4 24c0-.287.059-.565.17-.825a6.322 6.322 0 0 1-.378-.908 2.133 2.133 0 0 1 0-4c.103-.314.229-.618.378-.909-.111-.26-.17-.538-.17-.825 0-1.177.956-2.133 2.133-2.133.287 0 .565.059.825.17.291-.149.595-.275.909-.378a2.133 2.133 0 0 1 4 0c.313.103.617.229.908.378.26-.111.538-.17.825-.17 1.178 0 2.133.956 2.133 2.133 0 .287-.059.566-.17.825.15.291.276.595.378.909a2.133 2.133 0 0 1 1.392 2zm-1.066 0c0-.511-.362-.947-.857-1.045l-.322-.065-.087-.316a5.26 5.26 0 0 0-.503-1.212l-.157-.274.165-.269c.105-.17.16-.359.16-.553 0-.588-.477-1.066-1.066-1.066-.194 0-.382.055-.553.16l-.269.165-.274-.157a5.26 5.26 0 0 0-1.211-.502l-.317-.088-.064-.322a1.066 1.066 0 0 0-2.09 0l-.065.322-.316.088a5.26 5.26 0 0 0-1.212.502l-.274.157-.269-.165a1.053 1.053 0 0 0-.553-.16c-.588 0-1.066.478-1.066 1.066 0 .194.055.382.16.553l.165.27-.157.273a5.26 5.26 0 0 0-.502 1.212l-.088.316-.322.065a1.066 1.066 0 0 0 0 2.09l.322.064.088.317c.118.427.286.833.502 1.211l.157.274-.165.27c-.105.17-.16.358-.16.552 0 .589.478 1.067 1.066 1.067.194 0 .382-.056.553-.16l.27-.165.273.156a5.26 5.26 0 0 0 1.212.503l.316.087.065.322a1.066 1.066 0 0 0 2.09 0l.064-.322.317-.087a5.26 5.26 0 0 0 1.211-.503l.274-.157.27.165c.17.105.358.16.552.16.589 0 1.067-.477 1.067-1.066 0-.194-.056-.382-.16-.553l-.166-.269.157-.274a5.26 5.26 0 0 0 .503-1.211l.087-.317.322-.064c.495-.099.857-.535.857-1.045z"/>
        <path d="M20.267 24a3.733 3.733 0 1 1 0-7.467 3.733 3.733 0 0 1 0 7.467zm0-1.067a2.667 2.667 0 1 0 0-5.333 2.667 2.667 0 0 0 0 5.333zM2.667 29.867h3.2V28.8h-3.2zM2.667 21.333h3.2v-1.066h-3.2zM2.667 3.733h3.2V2.667h-3.2z"/>
        <path d="M6.4 2.133v28.8a.533.533 0 0 1-.076.275l-1.6 2.666a.533.533 0 0 1-.915 0l-1.6-2.666a.533.533 0 0 1-.076-.275v-28.8a2.134 2.134 0 0 1 4.267 0zm-1.067 0a1.067 1.067 0 0 0-2.133 0v28.653l1.067 1.777 1.066-1.777V2.133zM11.733 3.733h6.4V2.667h-6.4zM11.733 7.467H28.8V6.4H11.733zM11.733 9.6H28.8V8.533H11.733zM11.733 11.733H28.8v-1.066H11.733z"/>
        <path d="M5.867 5.867V4.8H.533A.533.533 0 0 0 0 5.333v10.134h1.067v-9.6h4.8z"/>
    </g>
</svg>
