<svg xmlns="http://www.w3.org/2000/svg" width="35" height="33" viewBox="0 0 35 33">
    <g fill="#A3C0CC" fill-rule="nonzero">
        <path d="M11.935 20.781l6.016 2.188h5.018a1.094 1.094 0 0 1 0 2.187h-6.016c-1.208 0-2.187.98-2.187 2.188h1.093c0-.604.49-1.094 1.094-1.094h6.016a2.188 2.188 0 0 0 0-4.375h-4.826l-6.015-2.188H7.109v1.094h4.826z"/>
        <path d="M33.906 24.063c-.001.113-.066.275-.181.448-.056.083-.111.153-.155.204L20.1 31.719h-.866l-9.297-3.282h-2.28v1.094H9.75l9.297 3.282h1.321l13.866-7.21.06-.06a2.88 2.88 0 0 0 .34-.426c.223-.333.362-.677.366-1.038 0-1.225-.98-2.204-2.188-2.204h-.083l-8.83 2.76.327 1.043 8.662-2.707a1.094 1.094 0 0 1 1.018 1.091zM24.61 19.688a3.281 3.281 0 1 1 0-6.563 3.281 3.281 0 0 1 0 6.563zm0-1.094a2.187 2.187 0 1 0 0-4.375 2.187 2.187 0 0 0 0 4.375zM15.86 15.313a3.281 3.281 0 1 1 0-6.563 3.281 3.281 0 0 1 0 6.563zm0-1.094a2.187 2.187 0 1 0 0-4.375 2.187 2.187 0 0 0 0 4.375zM5.469 27.344H4.375v1.093h1.094zM3.281 27.344H2.187v1.093h1.094zM17.5 4.375V0h-1.094v4.375zM15.313 7.656V3.281h-1.094v4.375zM16.406 5.469v1.093H17.5V5.47zM14.219 1.094v1.093h1.094V1.095zM24.063 8.75V4.375h-1.094V8.75zM26.25 12.031V7.656h-1.094v4.375zM22.969 9.844v1.094h1.093V9.844zM25.156 5.469v1.093h1.094V5.47z"/>
        <path d="M0 19.688h6.563v9.843H0v1.094h6.563c.604 0 1.093-.49 1.093-1.094v-9.843c0-.605-.489-1.094-1.093-1.094H0v1.093z"/>
    </g>
</svg>
