<svg xmlns="http://www.w3.org/2000/svg" width="37" height="37" viewBox="0 0 37 37">
    <g fill="#A3C0CC" fill-rule="nonzero">
        <path d="M35.435 33.508v-.33h-12.75l-1.129 1.128h-6.112l-1.13-1.129H1.565v.331l1.928 1.927h30.016l1.927-1.927zm-13.217-1.46h14.347v1.928l-2.59 2.589H3.026l-2.59-2.59v-1.927h14.347l1.13 1.13h5.177l1.129-1.13z"/>
        <path d="M5.516 12.855a2.258 2.258 0 0 0-2.258 2.258v17.5h1.13v-17.5a1.13 1.13 0 0 1 1.128-1.13v-1.128zM33.742 32.613v-17.5a2.258 2.258 0 0 0-2.258-2.258v1.129a1.13 1.13 0 0 1 1.129 1.129v17.5h1.129zM15.677 20.476c0-1.9-.512-2.54-2.258-2.54-1.745 0-2.258.64-2.258 2.54 0 1.786.967 3.105 2.258 3.105 1.292 0 2.258-1.32 2.258-3.105zm1.13 0c0 2.347-1.383 4.234-3.388 4.234-2.004 0-3.387-1.887-3.387-4.234 0-2.475.956-3.67 3.387-3.67 2.432 0 3.387 1.195 3.387 3.67z"/>
        <path d="M18.5 26.968c0 .629-.345 1.129-.565 1.129H8.903c-.219 0-.564-.5-.564-1.13v-.8l3.667-2.096-.56-.98-4.236 2.42v1.457c0 1.182.743 2.258 1.693 2.258h9.032c.951 0 1.694-1.076 1.694-2.258V25.51l-4.236-2.42-.56.98 3.667 2.095v.802zM26.004 13.02a.565.565 0 0 1 .4-.165h2.257a.565.565 0 0 0 .565-.565V2.13a.565.565 0 0 0-.565-.564H8.34a.564.564 0 0 0-.565.564V12.29c0 .312.253.565.565.565h12.42c.31 0 .564.253.564.564v4.283l4.681-4.682zm-17.665.964a1.694 1.694 0 0 1-1.694-1.694V2.13c0-.936.758-1.694 1.694-1.694H28.66c.935 0 1.694.759 1.694 1.694V12.29c0 .935-.759 1.694-1.694 1.694h-2.024l-5.48 5.48a.565.565 0 0 1-.963-.4v-5.08H8.339z"/>
        <path d="M17.935 7.774h1.13V6.645h-1.13zM20.194 7.774h1.129V6.645h-1.13zM15.677 7.774h1.13V6.645h-1.13zM21.323 28.097v1.129h8.467v-9.032h-1.129v7.903z"/>
        <path d="M27.532 21.323h-5.08v1.129h5.08zM27.532 23.58h-5.08v1.13h5.08zM27.532 25.839h-5.08v1.129h5.08z"/>
    </g>
</svg>
