<svg xmlns="http://www.w3.org/2000/svg" width="35" height="39" viewBox="0 0 35 39">
    <g fill="#A3C0CC" fill-rule="nonzero">
        <path d="M11.838 13.173l.673-.11-.376-.191-.297.301zm1.75-1.773l.824.836-5.758 5.833-2.82 6.286v5.19H4.666v-5.318c0-.084.017-.167.052-.244l2.917-6.5a.591.591 0 0 1 .118-.174l3.511-3.556-2.583-1.309-6.79 1.72a.58.58 0 0 1-.664-.309L.062 11.492a.597.597 0 0 1 .109-.683L6.004 4.9a.583.583 0 0 1 .183-.125l3.73-1.62V1.183c0-.433.443-.718.83-.536l8.75 4.137c.109.051.2.136.26.242l2.333 4.136c.05.09.077.19.077.294v4.136l-.014.128-2.32 10.573v5.253h-1.166v-5.318l.014-.128L21 13.526V9.611l-2.165-3.837-7.752-3.664v1.435c0 .237-.139.45-.353.544L6.75 5.816l-5.457 5.528.77 1.559 6.546-1.658a.577.577 0 0 1 .402.045l3.124 1.582 1.453-1.472z"/>
        <path d="M9.333 5.91H8.167v1.18h1.166zM12.833 26.59h-1.166v1.183h1.166zM15.167 26.59H14v1.183h1.167zM10.5 26.59H9.333v1.183H10.5zM21 31.318c1.288 0 2.333 1.059 2.333 2.364v4.136c0 .327-.26.591-.583.591h-21a.587.587 0 0 1-.583-.59v-4.137c0-1.305 1.045-2.364 2.333-2.364v-1.773c0-.326.261-.59.583-.59h16.334c.322 0 .583.264.583.59v1.773zm-16.333.591c0 .326-.262.591-.584.591H3.5c-.644 0-1.167.53-1.167 1.182v3.545h19.834v-3.545c0-.653-.523-1.182-1.167-1.182h-.583a.587.587 0 0 1-.584-.59v-1.774H4.667v1.773z"/>
        <path d="M32.667 29.545a.587.587 0 0 0-.584-.59h-9.916v1.181H31.5v1.773c0 .326.261.591.583.591h.584c.644 0 1.166.53 1.166 1.182v3.545H24.5v1.182h9.917a.587.587 0 0 0 .583-.59v-4.137c0-1.305-1.045-2.364-2.333-2.364v-1.773zM5.833 32.5h12.834v-1.182H5.833zM23.333 8.864h7.584V7.682h-7.584z"/>
        <path d="M29.75 13.451l-1.105 2.24a.597.597 0 0 0-.062.264v8.272c0 .092.021.182.062.265l1.105 2.238v2.815h1.167v-2.954a.597.597 0 0 0-.062-.264l-1.105-2.24v-7.993l1.105-2.239a.597.597 0 0 0 .062-.264v-2.955a.587.587 0 0 0-.584-.59h-7v1.181h6.417v2.224z"/>
        <path d="M28.583 8.273v2.363h1.167V8.273z"/>
        <path d="M22.75 1.773v1.772c0 .327.261.591.583.591h3.5a.587.587 0 0 0 .584-.59V1.772h2.333v5.909h-6.417v1.182h7a.587.587 0 0 0 .584-.591V1.182a.587.587 0 0 0-.584-.591h-3.5a.587.587 0 0 0-.583.59v1.774h-2.333V1.182a.587.587 0 0 0-.584-.591h-3.5a.587.587 0 0 0-.583.59v1.774h1.167V1.773h2.333zM29.167 23.636h-7v1.182h7z"/>
    </g>
</svg>
