<svg xmlns="http://www.w3.org/2000/svg" width="35" height="33" viewBox="0 0 35 33">
    <g fill="#A3C0CC" fill-rule="nonzero">
        <path d="M1.094 1.094h32.812v30.625h-6.562v1.093H35V0H0v32.813h7.656v-1.094H1.094z"/>
        <path d="M.547 5.469h33.906V4.375H.547zM2.188 3.281H3.28V2.187H2.187zM4.375 3.281h1.094V2.187H4.375zM6.563 3.281h1.093V2.187H6.563z"/>
        <path d="M8.75.547v4.375h1.094V.547zM10.938 3.281h21.874V2.187H10.939zM3.281 29.531V7.656H31.72v21.875h-4.375v1.094h5.468V6.562H2.189v24.063h5.468v-1.094z"/>
        <path d="M25.156 30.625v-9.844c0-.603-.49-1.093-1.093-1.093H10.938c-.604 0-1.094.49-1.094 1.093v9.844c0 .604.49 1.094 1.094 1.094h13.124c.604 0 1.094-.49 1.094-1.094zm1.094 0c0 1.208-.98 2.188-2.188 2.188H10.938a2.188 2.188 0 0 1-2.187-2.188v-9.844c0-1.207.98-2.187 2.188-2.187h13.124c1.208 0 2.188.98 2.188 2.187v9.844z"/>
        <path d="M20.781 19.14v-3.28a3.28 3.28 0 1 0-6.562 0v3.28h1.094v-3.28a2.187 2.187 0 1 1 4.374 0v3.28h1.094z"/>
        <path d="M23.516 19.14v-3.28a6.016 6.016 0 1 0-12.032 0v3.28h1.094v-3.28a4.922 4.922 0 1 1 9.844 0v3.28h1.094zM10.938 30.625h13.124v-1.094H10.938zM17.5 26.25a2.187 2.187 0 1 1 0-4.375 2.187 2.187 0 0 1 0 4.375zm0-1.094a1.094 1.094 0 1 0 0-2.187 1.094 1.094 0 0 0 0 2.187z"/>
        <path d="M16.953 25.703v1.64h1.094v-1.64z"/>
    </g>
</svg>
