<svg xmlns="http://www.w3.org/2000/svg" width="35" height="36" viewBox="0 0 35 36">
    <g fill="#A3C0CC" fill-rule="nonzero">
        <path d="M32.323 12.182l.979-.49-3.98-7.958h-5.26v1.094h4.584zM10.938 4.828V3.734h-5.26l-3.98 7.959.979.49 3.677-7.355z"/>
        <path d="M9.844 9.203a7.656 7.656 0 0 1 15.312 0h1.094a8.75 8.75 0 0 0-17.5 0h1.094zM35 11.39H0v1.094h35zM4.922 28.344v-10.39H3.828v10.39zM7.11 17.953v10.39h1.093v-10.39zM3.828 14.672v1.094h4.375v-1.094H3.828zm5.469-1.094v3.281H2.734v-3.28h6.563z"/>
        <path d="M3.828 28.89v1.094h4.375v-1.093H3.828zm5.469-1.093v3.281H2.734v-3.281h6.563zM12.578 28.344v-10.39h-1.094v10.39zM14.766 17.953v10.39h1.093v-10.39zM11.484 14.672v1.094h4.375v-1.094h-4.375zm5.47-1.094v3.281H10.39v-3.28h6.562z"/>
        <path d="M11.484 28.89v1.094h4.375v-1.093h-4.375zm5.47-1.093v3.281H10.39v-3.281h6.562zM20.234 28.344v-10.39h-1.093v10.39zM22.422 17.953v10.39h1.094v-10.39zM19.14 14.672v1.094h4.376v-1.094H19.14zm5.47-1.094v3.281h-6.563v-3.28h6.562z"/>
        <path d="M19.14 28.89v1.094h4.376v-1.093H19.14zm5.47-1.093v3.281h-6.563v-3.281h6.562z"/>
        <g>
            <path d="M27.89 28.344v-10.39h-1.093v10.39zM30.078 17.953v10.39h1.094v-10.39zM26.797 14.672v1.094h4.375v-1.094h-4.375zm5.469-1.094v3.281h-6.563v-3.28h6.563z"/>
            <path d="M26.797 28.89v1.094h4.375v-1.093h-4.375zm5.469-1.093v3.281h-6.563v-3.281h6.563z"/>
        </g>
        <path d="M35 13.578H0v1.094h35zM1.64 31.078h31.72v-1.094H1.64zM17.5 9.203a2.734 2.734 0 1 1 0-5.469 2.734 2.734 0 0 1 0 5.47zm0-1.094a1.64 1.64 0 1 0 0-3.28 1.64 1.64 0 0 0 0 3.28zM21.328 7.016h1.094V5.922h-1.094zM13.672 5.922h-1.094v1.094h1.094zM1.094 34.36h32.812v-1.094H1.094v1.093zM35 32.171v3.281H0v-3.281h35z"/>
    </g>
</svg>
