<svg height="252" viewBox="0 0 200 252" width="200" xmlns="http://www.w3.org/2000/svg" xmlns:xlink="http://www.w3.org/1999/xlink"><clipPath id="c"><path d="M-24-37h248v320H-24z"/></clipPath><clipPath id="d"><path d="M175.49 138.66c6.11-2.62 12 3.61 13.25 6.67 4.34 10.4-4.46 17.61-4.46 17.61a35.6 35.6 0 0 1-14.22 8c-15.84 4.87-30.65-3.47-38.15-8.94l-3.14-2.26-3.27 12.67 19.94 6.91a77.1 77.1 0 0 0 20.7 1.06c8.86-.76 16.88-2.63 24-9.45 8.46-8.07 13.46-21.65 7.49-33.77-4-8.15-13.74-17.3-24.73-15.53-8.05 1.3-17.26 8.53-16.51 16.85.52 5.79 5.84 11.95 12 12.1 4.37.12 10.13-2.73 10.13-6.63 0-3.12-3.69-6.61-9.12-7.18"/></clipPath><linearGradient id="b" gradientUnits="userSpaceOnUse" x1="181.01" x2="181.01" y1="153.06" y2="108.45"><stop offset="0" stop-color="#fff" stop-opacity="0"/><stop offset=".72" stop-color="#fff"/></linearGradient><linearGradient id="a" gradientUnits="userSpaceOnUse" x1="181.43" x2="181.43" y1="170.2" y2="134.22"><stop offset="0" stop-color="gray"/><stop offset=".27" stop-color="#7d7d7d"/><stop offset=".46" stop-color="#747474"/><stop offset=".64" stop-color="#646464"/><stop offset=".8" stop-color="#4d4d4d"/><stop offset=".95" stop-color="#303030"/><stop offset="1" stop-color="#242424"/></linearGradient><linearGradient id="e" x1="161.58" x2="161.58" xlink:href="#a" y1="185.26" y2="160.14"/><clipPath id="f"><path d="M76.44 75.9a18.31 18.31 0 0 1 9.88-2.9h12.05a18.4 18.4 0 0 1 8.21 2c1.87-1.46 6.81-5.19 9.86-5a1.15 1.15 0 0 1 .92 1.75l-4.91 7.93a18.54 18.54 0 0 1 3.6 6.8l22.48 73.14a18.89 18.89 0 0 1-.53 11.78h.06c3.62 1.05 10.43 3.51 13.7 5.75 2 1.35.77 4.26-1.76 4.21l-19.9-.36a19 19 0 0 1-5 2.13 2.06 2.06 0 0 0 2.14 1.67 2.08 2.08 0 0 1 1.86 1.94c.17 1.62-.44 2.65-2.12 2.82l-7 .23a4.05 4.05 0 0 1-1.69-.3 5.43 5.43 0 0 1-3.29-4.14l-.26-1.58H74.12l-.38 2a5.37 5.37 0 0 1-5.65 4.42l-6.42-.38a2.31 2.31 0 0 1-2.08-3.08 2.41 2.41 0 0 1 2.34-1.6c1.77-.09 2.31-1.55 2.28-3.32v-.26c-.36-.18-.71-.39-1.06-.6l-20.33.4c-2.54.05-3.78-2.91-1.76-4.21a58.13 58.13 0 0 1 14.05-6 19 19 0 0 1-1-9l14-73.14a18.49 18.49 0 0 1 2.51-7.15L66 73.61a1.16 1.16 0 0 1 .07-1.23c1.9-2.66 6.81.65 10 3.25z"/></clipPath><clipPath id="g"><path d="M76.65 75.9a18.24 18.24 0 0 1 9.86-2.9h12a18.22 18.22 0 0 1 8.22 2c1.86-1.46 6.79-5.19 9.83-5a1.14 1.14 0 0 1 .92 1.74l-4.9 7.92a18.21 18.21 0 0 1 3.59 6.78l22.44 73a18.87 18.87 0 0 1-.48 11.85h.06c3.61 1 10.4 3.51 13.67 5.74 2 1.35.77 4.25-1.76 4.2l-19.89-.38a18.65 18.65 0 0 1-5 2.13 2.08 2.08 0 0 0 2.14 1.67 2.07 2.07 0 0 1 1.86 1.94c.17 1.61-.44 2.64-2.12 2.81l-7 .23a3.91 3.91 0 0 1-1.69-.31 5.41 5.41 0 0 1-3.28-4.12l-.27-1.58H74.33l-.38 2a5.63 5.63 0 0 1-.67 1.81 5.37 5.37 0 0 1-5 2.6l-6.41-.38a2.31 2.31 0 0 1-2.07-3.08 2.42 2.42 0 0 1 2.33-1.6c1.77-.09 2.31-1.54 2.28-3.31v-.25q-.54-.28-1.05-.6l-20.3.39c-2.53 0-3.78-2.9-1.76-4.2a57.88 57.88 0 0 1 14-5.95 19 19 0 0 1-1-8.94L68.34 89a18.28 18.28 0 0 1 2.5-7.13l-4.6-8.22a1.15 1.15 0 0 1 .07-1.22c1.9-2.65 6.79.65 10 3.24z"/></clipPath><linearGradient id="h" x1="74.33" x2="114.9" xlink:href="#a" y1="173.81" y2="173.81"/><linearGradient id="i" x1="62.75" x2="62.75" xlink:href="#a" y1="75.07" y2="181.44"/><linearGradient id="j" x1="134.47" x2="134.47" xlink:href="#a" y1="159.83" y2="185.3"/><linearGradient id="k" x1="124.83" x2="124.83" xlink:href="#b" y1="181.6" y2="73.59"/><clipPath id="l"><path d="M90.73 112.05s.75 1.53 4.2 1.37c2.84-.13 3.44-1.5 3.44-1.5l-4.61-6.13-1.42 3.82z"/></clipPath><clipPath id="m"><path d="M113.75 84.56c-3.83.93-8.92 4.52-10.35 16.64 0 0 8.94 7.27 16.36-2 3.94-4.92 3.28-8.76 1.79-11.29a7.09 7.09 0 0 0-7.8-3.35z"/></clipPath><clipPath id="n"><path d="M73 85.87c3.83.94 8.92 4.52 10.34 16.64 0 0-8.93 7.28-16.35-2-3.94-4.92-3.28-8.77-1.79-11.29a7.1 7.1 0 0 1 7.8-3.35z"/></clipPath><path d="M-24-37h248v320H-24z" fill="#c0e1ff"/><g clip-path="url(#c)"><ellipse cx="95.5" cy="181.5" fill="#96c4d6" rx="57" ry="9.5"/><g clip-path="url(#d)"><path d="M119.99 120.73h84.85v60.42h-84.85z" fill="#897dff"/><g fill="#83d6ff"><path d="M153.52 159.64s11.77 4.58 14 13.23c1.23 4.87 3.41 4.45 5.08 3.16a6.81 6.81 0 0 0 2.57-4.76c.39-4.11.46-12.72-5.41-15.08-7.76-3.13-16.24 3.45-16.24 3.45zm-36.72 5.29c7.92 7.94 13.6 12.69 14.74 16.24a11.92 11.92 0 0 0 4.07 6.08c.64.46 2.95 2.15 4.94 1.54 3.82-1.16 3.93-9.93 3.93-10.95 0-1.34.06-16.87-9.71-19.54-5.09-1.39-13.77 1.82-17.97 6.63zm61.04-13.46c-3 1.27-6.82-7.82-14.25-7.87-3.28 0-5.7 1.72-6.55.62s.52-3.44 1.88-4.86a9.46 9.46 0 0 1 6-2.63c5.18-.59 12.74 1.83 14.35 7.59.73 2.6.35 6.41-1.43 7.15z"/><path d="M180.2 165c-1.41-.53-1.23-3-1.92-12.26-.29-3.85-.44-5 .14-5.25 1.12-.52 4.09 2.69 5.49 6.21.32.81 2.66 6.94-.52 10-.17.21-1.85 1.83-3.19 1.3zm7.69.61c-1 0-1.4 1.6-3.77 7.25-1 2.34-1.32 3-1 3.3.59.56 3.11-.82 4.72-2.72.37-.44 3.11-3.77 1.78-6.36-.09-.14-.79-1.5-1.73-1.47zm7.98-36.08c-.74 1-2.41.22-7.47 0-3.09-.15-4.14.06-4.3-.42-.28-.82 2.3-2.7 5-3.45 1.18-.33 4.55-1.27 6.19.63.71.84 1.2 2.39.58 3.24zm-44.16 47.84c1.24.08 1.48 1.92 4 6.32 1.53 2.68 2.27 3.46 1.95 3.86-.54.67-3.52-.5-5.59-2.37-.91-.81-3.51-3.16-2.78-5.56.31-1.1 1.37-2.33 2.42-2.25zm11.43 5.14c.7 1.14 1.47.72 7.3 1 2.52.09 3.13.21 3.45-.25.81-1.16-1-3.26-4-4.65-1.62-.76-4.42-1.3-6.11.17a4.74 4.74 0 0 0-1.3 2.17c-.19.56.06.6.66 1.56zm12.32-56.86c0-1-1.46-1.53-6.87-4.41-2.24-1.19-2.89-1.59-3.2-1.31-.61.54.54 3.18 2.28 5 .4.4 3.47 3.44 6.17 2.34.16-.1 1.57-.68 1.62-1.62z"/><path d="M184.61 147.09c-3.05-.17-6.55 6.13-6.76 11.92s2.75 11.13 4.29 10.92c1.2-.16.48-3.6 3.1-9.13 2-4.14 3.66-4.94 3.6-7.57-.07-2.83-2.13-6.03-4.23-6.14z"/><path d="M184.66 152c-.66 1.32 4.09 3 6.32 8.55 1.78 4.42.63 8 2.08 8.46 1.14.34 2.82-1.62 3.55-3.24 1.1-2.47.34-4.87-.17-6.47a11.12 11.12 0 0 0-4.23-6.22c-2.86-1.9-6.98-2.2-7.55-1.08zm-18.16-22c-.41 4-6.34 6.32-10.77 5.79-.86-.11-7.09-1.47-5.23-2.66 5.62-3.57 7-5.35 8.44-9.54a6 6 0 0 1 3.2.1c2.52.89 4.62 3.76 4.36 6.31zm-13.31 35.85c1.37 1.67 0 4.82-1.85 6.31-.36.29-1.94 1.55-3 1-1.73-.89-2-6.62.78-8a3.53 3.53 0 0 1 4.07.69zm5.9 5.15a3.31 3.31 0 0 1 3.7 2.87c.23 1.81-1.64 5.27-3.45 5.5s-2.89-2.85-3.12-4.67a3.31 3.31 0 0 1 2.87-3.7zm6.91 11a1.38 1.38 0 0 1 1.54 1.19c.1.75-.69 2.29-1.44 2.39s-1.19-1.29-1.28-2A1.37 1.37 0 0 1 166 182zm13.1-56.8a2.37 2.37 0 0 1 2.65 2c.16 1.29-1.2 3.94-2.49 4.11s-2-2.22-2.2-3.52a2.36 2.36 0 0 1 2.04-2.59z"/><circle cx="177.16" cy="179.41" r="2.44"/><path d="M196.4 151.94a1.47 1.47 0 1 1 .38 2.92 2.55 2.55 0 0 1-2.23-1.75c-.1-.8 1.05-1.11 1.85-1.17zm-17.21-31.18a1.47 1.47 0 1 1 .37 2.92 2.53 2.53 0 0 1-2.22-1.74c-.11-.81 1.04-1.08 1.85-1.18zm-31.62 53.71a1.07 1.07 0 1 1 .27 2.12 1.82 1.82 0 0 1-1.61-1.27c-.08-.58.77-.78 1.34-.85zm19.69.26a1.07 1.07 0 1 1-1.26 1.73 1.84 1.84 0 0 1-.3-2c.3-.46 1.08-.08 1.56.27zm14.34-43.04c2.27-.29 4.49 3.11 4.77 5.38a4.13 4.13 0 1 1-8.2 1c-.29-2.22 1.17-6.07 3.43-6.38zm8.61 11.31a2.28 2.28 0 0 1 2.55 2c.16 1.25-1.87 3.79-3.12 4s-1.24-2.12-1.4-3.37a2.28 2.28 0 0 1 1.97-2.63zm-18.86-12.89a2.28 2.28 0 0 1 2.55 2c.16 1.25-1.87 3.79-3.12 3.95s-1.24-2.12-1.4-3.37a2.28 2.28 0 0 1 1.97-2.58zm6.79 40.89c1.14-.15 2.89-.06 3 1.08s-1.36 2.89-2.5 3a2.08 2.08 0 1 1-.53-4.12zm21.06-25.8a2.42 2.42 0 0 0 .57 4.81 8.67 8.67 0 0 0 2.25-.56 14.2 14.2 0 0 1 5-.94c3.31 0 4.52-2.27.44-3.06a24.41 24.41 0 0 0-8.26-.25zm-6.13-3.06s-4.08-3.74 1.29-6.58 8.45-3 11-6.62c0 0 5.4 4.49-.9 8.88a26.38 26.38 0 0 1-11.39 4.32z"/></g><path d="M156.42 138.5s7-17.07 25-10.36 18.41 24.92 18.41 24.92L212 129.23 190.86 110l-31.09-1.57-9.77 11.22z" fill="url(#b)" opacity=".5"/><path d="M175.63 134.9c.76-.21 9.86-3.91 14.87 8.34 5.2 12.7-2.38 20.28-18.18 27l8.68-28.72s-1.82-1-5.52-2.86-4.76-1.7-4.76-1.7a49.8 49.8 0 0 1 4.91-2.06z" fill="url(#a)" opacity=".2"/><path d="M141 166.52c9.67 4.7 6.48 9.4 18 10.28 18.82 2.95 29.77-3.79 35.31-10.93l9.06-4-8.68 23.4-74.82-.82 4.88-24.3s11.02 3.85 16.25 6.37z" fill="url(#e)" opacity=".2"/></g><path d="M175.56 138.11a8.39 8.39 0 0 1 4.72-.55 11.17 11.17 0 0 1 4.33 1.82 16 16 0 0 1 3.41 3.16 13.24 13.24 0 0 1 1.32 1.94 16.39 16.39 0 0 1 .84 2.19 14.7 14.7 0 0 1-.08 9.18 18.41 18.41 0 0 1-5.12 7.64 36.1 36.1 0 0 1-13.33 7.82c-1.22.43-2.5.71-3.75 1.05-.62.18-1.28.23-1.92.35s-1.27.24-1.92.28a37.93 37.93 0 0 1-7.78 0 46.36 46.36 0 0 1-14.8-4.41 63.57 63.57 0 0 1-6.75-3.77c-2.18-1.4-4.22-3-6.3-4.42l.88-.32-3.28 12.73-.36-.68 20.07 6.88h-.08a76.9 76.9 0 0 0 23 .82 44.19 44.19 0 0 0 11.18-2.55 30.38 30.38 0 0 0 9.66-6 32.28 32.28 0 0 0 10.5-19.8 25.25 25.25 0 0 0-3.66-16.35 29.93 29.93 0 0 0-3.41-4.58 28.51 28.51 0 0 0-4.17-3.9c-.73-.6-1.54-1.1-2.33-1.63a25 25 0 0 0-2.51-1.32 18.13 18.13 0 0 0-11-1.52 22.42 22.42 0 0 0-10.09 4.9c-2.88 2.4-5.2 5.71-5.57 9.41a10.72 10.72 0 0 0 .87 5.4 14.13 14.13 0 0 0 3.1 4.61 12.55 12.55 0 0 0 4.62 3 10 10 0 0 0 5.42.33 12.14 12.14 0 0 0 5-2.23 6 6 0 0 0 1.73-2 3.61 3.61 0 0 0 .32-2.48 7.2 7.2 0 0 0-3.29-4.2 13.53 13.53 0 0 0-2.53-1.25 15.15 15.15 0 0 0-2.77-.68.23.23 0 0 1 .05-.45 13.14 13.14 0 0 1 5.66 1.72 9.75 9.75 0 0 1 2.35 1.91 6.36 6.36 0 0 1 1.49 2.72 4.63 4.63 0 0 1-.33 3.17 7.08 7.08 0 0 1-2 2.42 13.23 13.23 0 0 1-5.5 2.5 11.19 11.19 0 0 1-6-.35 13.38 13.38 0 0 1-5.07-3.28 15.58 15.58 0 0 1-3.33-5 12.19 12.19 0 0 1-.93-6 13.36 13.36 0 0 1 2-5.68 19.19 19.19 0 0 1 3.95-4.47 23.55 23.55 0 0 1 10.63-5.16 19.33 19.33 0 0 1 11.68 1.6A28.68 28.68 0 0 1 187 124a29.52 29.52 0 0 1 2.44 1.7 30.63 30.63 0 0 1 4.32 4 31.37 31.37 0 0 1 3.53 4.74 27.15 27.15 0 0 1 2.55 5.36 26.36 26.36 0 0 1 1.27 11.72 33.4 33.4 0 0 1-10.8 20.52 31.8 31.8 0 0 1-10 6.2 45 45 0 0 1-11.46 2.62 78.16 78.16 0 0 1-23.35-.83h-.08l-20.05-7-.5-.17.13-.51 3.28-12.74.21-.79.67.47c2.09 1.48 4.13 3 6.25 4.4a62.27 62.27 0 0 0 6.63 3.7 45.25 45.25 0 0 0 14.44 4.3 37.39 37.39 0 0 0 7.53 0c.63 0 1.24-.19 1.86-.27s1.25-.16 1.85-.34c1.22-.33 2.44-.59 3.64-1a35.07 35.07 0 0 0 12.91-7.57 17.22 17.22 0 0 0 4.76-7.13 13.62 13.62 0 0 0 .08-8.47 15.54 15.54 0 0 0-.77-2 10.82 10.82 0 0 0-1.2-1.77 14.37 14.37 0 0 0-3.16-2.92 9.94 9.94 0 0 0-3.88-1.65 7.3 7.3 0 0 0-4.08.47.57.57 0 1 1-.45-1z" fill="#31323d"/><g clip-path="url(#f)"><path d="M39.31 63.07h115.84v132.81H39.31z" fill="#897dff"/><g fill="#83d6ff"><ellipse cx="82.47" cy="150.63" rx="3.99" ry="3.52"/><path d="M95.29 144.31c-.18 1.35 2.35 3.32 4.34 2.74a2.57 2.57 0 0 0 1.94-2.17 2.62 2.62 0 0 0-1.71-2.17c-1.86-.79-4.4.34-4.57 1.6zm34.83 8.81c-.45 3.42 6 8.41 11 6.95 2.18-.63 4.89-2.7 4.93-5.5s-2.63-4.76-4.35-5.51c-4.59-2-11.16.87-11.58 4.06zM115.9 121c-1.76 2.27-1.11 6.6 1.4 9.23a8.5 8.5 0 0 0 11 .8c1.95-1.45 3.88-4.31 3.21-6.82-1.29-4.95-12.45-7.3-15.61-3.21zm3.59 20.15c-.82.69-.48 3 .8 4.23.63.62 2 1.49 3.2.91a2.43 2.43 0 0 0 1.26-2.28c-.19-2.2-4.12-3.82-5.26-2.86zm-52.34-1.49c-1.67-.47-4 1-4.8 3.09s-.39 4.69 1.6 5.83a4.22 4.22 0 0 0 4.8-.57c2.33-2.23.95-7.62-1.6-8.35zm-9.53-23.37c-1.41 2.28-.13 6.32 2.56 8.41s6.79 2.55 9.31.07a6.5 6.5 0 0 0 1.16-7.35c-2.32-4.42-10.89-4.6-13.03-1.13zm20.16 18.12a1.48 1.48 0 0 0-.23 2.17 1.22 1.22 0 0 0 1.6 0c.4-.58-.79-2.31-1.37-2.17zm-14.51 26.51c1.65-1.1 4.42.3 4.57 1.6.1.86-1 1.59-1.14 1.71-1.4 1-3.82.93-4.46-.34a2.56 2.56 0 0 1 1.03-2.97zM95.61 79a4 4 0 0 0 .11 4.8c1.54 1.76 4.51.92 5.37.68 2.09-.58 4.8-2.31 4.57-3.77-.35-2.27-7.81-4.46-10.05-1.71zM80 78.64a2 2 0 0 0 1.6 2.52 1.75 1.75 0 0 0 1.26-2.4 2 2 0 0 0-2.86-.12zm9.1 9.26a3.65 3.65 0 0 0-.32 4.88c.9.93 2.35.78 3.58.65.17 0 3.84-.42 4.06-1.79.29-1.76-5.15-5.3-7.32-3.74zm6.98-33.22c-3.69 6.81 1.27 15 1.9 16.06 5.07 8.38 14.62 10.13 18.78 10.89 2.14.39 17.71 3.24 22.32-4.63 2.59-4.4.44-10-.54-12.52-3.7-9.59-13.92-16.48-24.54-16.87-2.3-.09-13.81-.52-17.92 7.07zm-10.3 77.79c-.79.67-.66 2.86.69 3.77s3.1.39 3.54-.58a1.71 1.71 0 0 0-.12-1.37c-.71-1.61-3.19-2.62-4.11-1.82zM49.9 163.2c1.3-1.58 4.91-1.42 6.63.46a5.21 5.21 0 0 1 1.14 3.54c0 .88 0 2.38-1 3.2-1.44 1.15-3.75.07-3.88 0-2.69-1.29-4.39-5.4-2.89-7.2zm71.1 4.23c-.76-.08-2.4 2.57-1.37 3.89a1.68 1.68 0 0 0 2 .57c.99-.72.2-4.36-.63-4.46zm-10.59-26.51a3 3 0 0 0-1.94 3.54c.48 1.33 2.25 1.62 2.86 1.72.86.14 2.76.2 3.2-.69.66-1.35-2-5.07-4.12-4.57z"/><path d="M119.85 70.8s-2.9-2-7.78 3.16L109.5 77l4.28 3.55zm-56.38 3.05s2.1-1.44 5.46-.06a9.2 9.2 0 0 1 3.61 2.68l1.14 1.36L70.81 82z"/></g></g><g clip-path="url(#g)" opacity=".2"><path d="M76.79 170.52c-1.69 7 4.62 8.93 6.32 9.06 3.14.23 15.48.43 21.88-.61 3.33-.53 8.31-5 6.64-14.93l3.27 19.53H74.33z" fill="url(#h)"/><path d="M78.3 75.07c-5 5-5.57 9.44-7.73 18.85-3.7 16.29-8.17 51.1-9.6 62.62a66.81 66.81 0 0 0-.52 7.48v.26c1.79 2 3.62 6.75 4 13.44l.1 3.72s-2.38-.05-6.16-.05c-4.71 0-8.43-8.5-6-21.16 2.16-11.37-5.17-69.61-5.17-69.61l21.46-3.37a18.13 18.13 0 0 1 9.62-12.18z" fill="url(#i)"/><path d="M125.53 174.07s2.28-6.95 5.05-9.5c-3 5.7 1.07 7.05 2.13 6.67 4.08-1.46 5.7-5.07 6-11.41l5 8.85s-4.18 19.46-15.51 16.27l-3-1.38z" fill="url(#j)"/></g><g clip-path="url(#g)" opacity=".2"><path d="M102.23 73.64s2.21 2.55 3.88 4.93 3.35 6.56 5 13.76c4.48 19.67 17.44 52 21 67.52s-3.9 21.75-3.9 21.75l4.65-2.7s4.79-5.69 5.51-8.19c1.58-5.46 10.57-2.5 8.91-11.23C144.82 146.83 124 85.69 124 85.69s-9.39-2.27-11.5-6c-1.57-2.8-5.56-4.92-9.43-6.08z" fill="url(#k)"/></g><path d="M114.9 183.57H74.33m-9.9-2.18a19 19 0 0 1-10-19.32L68.34 89a18.32 18.32 0 0 1 18.17-16h12a18.31 18.31 0 0 1 17.63 13.33l22.44 73a19 19 0 0 1-13.37 23.56" fill="none" stroke="#31323d" stroke-linecap="round" stroke-miterlimit="10" stroke-width=".95"/><path d="M78 165.2c-.54 4.64-1.42 9.2-2.26 13.78l-1.27 6.87a5.87 5.87 0 0 1-1.89 3.26 6 6 0 0 1-3.48 1.43 17.77 17.77 0 0 1-1.82 0l-1.74-.1-3.54-.26a3.05 3.05 0 0 1-1.93-.74 2.79 2.79 0 0 1-.86-1.92 3.69 3.69 0 0 1 .07-1 2.22 2.22 0 0 1 .49-1 3.21 3.21 0 0 1 1.8-1 4 4 0 0 1 .5-.06h.37a1.73 1.73 0 0 0 .61-.24 1.94 1.94 0 0 0 .75-1.22 13.55 13.55 0 0 0 .06-3.33l-.28-7a21.16 21.16 0 0 0-.94-4.43 13.9 13.9 0 0 0-2.18-4 .17.17 0 0 1 0-.24.16.16 0 0 1 .22 0 12.11 12.11 0 0 1 2.62 3.91 18 18 0 0 1 1.16 4.58l.36 7 .08 1.75a6.69 6.69 0 0 1-.15 1.87 2.84 2.84 0 0 1-1.11 1.89 2.65 2.65 0 0 1-1 .4 4.53 4.53 0 0 1-.5.06l-.36.05c-2.22.19-1.88 3.78.3 3.58l3.48.2 1.74.1a16.44 16.44 0 0 0 1.67.07 4.84 4.84 0 0 0 4.44-3.83l1.31-6.84c.88-4.57 1.72-9.15 2.9-13.66a.17.17 0 0 1 .33.06z" fill="#31323d"/><path d="M67.81 186.4a1.48 1.48 0 0 0-.92.38 2.49 2.49 0 0 0-.59.86 6 6 0 0 0-.4 2.15.48.48 0 1 1-1 0v-.06a7 7 0 0 1 .78-2.36 2.29 2.29 0 0 1 2.13-1.28.18.18 0 0 1 .15.19.17.17 0 0 1-.17.15zm-3.23-.4a1.81 1.81 0 0 0-.9.46 2.63 2.63 0 0 0-.59.86 5.65 5.65 0 0 0-.41 2.1.48.48 0 0 1-.48.47.49.49 0 0 1-.47-.49.17.17 0 0 1 0-.07 6.15 6.15 0 0 1 .79-2.32 2.55 2.55 0 0 1 2-1.35.17.17 0 0 1 .17.17.17.17 0 0 1-.14.17zm47.22-22c1.22 5.3 2.09 10.66 3 16l.69 4 .17 1a5.58 5.58 0 0 0 .24.89 5 5 0 0 0 1 1.57A4.33 4.33 0 0 0 120 189l4-.14 2-.06h1a2.36 2.36 0 0 0 .79-.2 1.39 1.39 0 0 0 .81-1.19 4.22 4.22 0 0 0 0-.87 2.39 2.39 0 0 0-.27-.76 1.41 1.41 0 0 0-.52-.51 1.26 1.26 0 0 0-.34-.13h-.46a3.22 3.22 0 0 1-1.16-.35 2.38 2.38 0 0 1-.91-.9 4.12 4.12 0 0 1-.36-2.25v-4a20.63 20.63 0 0 1 .21-2.08 19.89 19.89 0 0 1 1.08-4 20.77 20.77 0 0 1 4.39-6.95.17.17 0 0 1 .24 0 .18.18 0 0 1 0 .23 26.29 26.29 0 0 0-3.83 7 22.66 22.66 0 0 0-.95 3.86 16.58 16.58 0 0 0-.18 2v4a3.2 3.2 0 0 0 .24 1.73 1.62 1.62 0 0 0 1.31.73 5 5 0 0 1 .55.06 2.32 2.32 0 0 1 .62.23 2.43 2.43 0 0 1 .92.88 3.12 3.12 0 0 1 .42 1.15 4.5 4.5 0 0 1 0 1.16 2.83 2.83 0 0 1-.41 1.18 2.4 2.4 0 0 1-1 .84 4.05 4.05 0 0 1-1.17.31h-1l-2.05.07-4.09.13a4.7 4.7 0 0 1-2.21-.55 6 6 0 0 1-2.89-3.26 5.71 5.71 0 0 1-.28-1.08l-.17-1-.65-4c-.88-5.36-1.8-10.71-2.37-16.13a.16.16 0 0 1 .15-.18.16.16 0 0 1 .34.03z" fill="#31323d"/><path d="M120.13 185.48a2.74 2.74 0 0 1 2.34 1.31 4.42 4.42 0 0 1 .54 1.29 8.6 8.6 0 0 1 .18 1.35.49.49 0 0 1-.45.5.47.47 0 0 1-.5-.45v-.07a7.88 7.88 0 0 0 0-1.19 3.53 3.53 0 0 0-.31-1.11 2.39 2.39 0 0 0-.71-.87 2.25 2.25 0 0 0-1.07-.42.16.16 0 0 1-.15-.18.16.16 0 0 1 .13-.16zm3.87-.25a2.73 2.73 0 0 1 2.34 1.31 4.42 4.42 0 0 1 .54 1.29 8.6 8.6 0 0 1 .18 1.35.47.47 0 0 1-.45.5.47.47 0 0 1-.5-.45v-.07a7.88 7.88 0 0 0 0-1.19 3.53 3.53 0 0 0-.31-1.11 2.3 2.3 0 0 0-.71-.87 2.21 2.21 0 0 0-1.07-.42.16.16 0 0 1-.15-.18.16.16 0 0 1 .13-.16z" fill="#31323d"/><path d="M76.26 75.63c-3.16-2.59-8.05-5.89-10-3.24a1.15 1.15 0 0 0-.07 1.22l4.6 8.22M106.73 75c1.86-1.46 6.79-5.19 9.83-5a1.14 1.14 0 0 1 .92 1.74l-4.9 7.92M55.35 171a57.88 57.88 0 0 0-14 5.95c-2 1.3-.77 4.25 1.76 4.2l21.33-.41" fill="none" stroke="#31323d" stroke-linecap="round" stroke-miterlimit="10" stroke-width=".95"/><path d="M48.44 177.31a3.69 3.69 0 0 0-2 1.22 1.44 1.44 0 0 0-.28 1 2.88 2.88 0 0 0 .33 1.07.48.48 0 0 1-.87.4v-.05a3.76 3.76 0 0 1-.26-1.47 2.17 2.17 0 0 1 .57-1.4 3.09 3.09 0 0 1 1.19-.8 4.69 4.69 0 0 1 1.32-.35.17.17 0 0 1 .19.15.17.17 0 0 1-.13.18zm-3.61.16a2.1 2.1 0 0 0-1.53 1.23 1.9 1.9 0 0 0 0 1c0 .16.1.32.15.48l.22.48a.48.48 0 0 1-.23.64.47.47 0 0 1-.63-.23v-.06l-.18-.6c0-.22-.09-.42-.11-.64a2.6 2.6 0 0 1 .22-1.31 2.05 2.05 0 0 1 .9-.94 3.1 3.1 0 0 1 1.17-.38.17.17 0 0 1 .07.33z" fill="#31323d"/><path d="M138.19 171.24c3.61 1 10.4 3.51 13.67 5.74 2 1.35.77 4.25-1.76 4.2l-19.89-.39" fill="none" stroke="#31323d" stroke-linecap="round" stroke-miterlimit="10" stroke-width=".95"/><path d="M144.8 176.83a5.23 5.23 0 0 1 1.33.4 3.55 3.55 0 0 1 1.17.85 2.39 2.39 0 0 1 .57 1.43 3.9 3.9 0 0 1-.26 1.49.49.49 0 0 1-.61.3.47.47 0 0 1-.3-.6 2.8 2.8 0 0 0 .33-1.09 1.63 1.63 0 0 0-.28-1 3.82 3.82 0 0 0-2.06-1.32.16.16 0 0 1-.11-.21.15.15 0 0 1 .22-.25zm3.6.17a3.3 3.3 0 0 1 1.18.44 2.29 2.29 0 0 1 .89 1 2.67 2.67 0 0 1 .22 1.33c0 .23-.07.43-.1.65l-.19.62a.48.48 0 1 1-.91-.29.08.08 0 0 1 0-.05l.22-.49a4.58 4.58 0 0 0 .15-.49 1.91 1.91 0 0 0 0-1 2.23 2.23 0 0 0-1.53-1.34.2.2 0 0 1-.11-.22.16.16 0 0 1 .18-.16zm-57.67-64.95s.75 1.53 4.2 1.37c2.84-.13 3.44-1.5 3.44-1.5l-4.61-6.13-1.42 3.82z" fill="#31323d"/><g clip-path="url(#l)" fill="#fff" stroke="#30313c" stroke-linejoin="round" stroke-width=".08"><path d="M93.32 108.29l-1.82.79 1 2a.68.68 0 0 0 1.3-.22v-3.16zm1.35.03l1.91.61-.81 2a.68.68 0 0 1-1.32-.1l-.36-3.11z"/></g><g fill="#31323d"><path d="M94.55 106.68a26.59 26.59 0 0 0 3 4 18.24 18.24 0 0 0 3.83 3.23.13.13 0 0 1 0 .19.15.15 0 0 1-.18.06 19 19 0 0 1-4.2-2.98q-1-.87-1.83-1.83c-.58-.65-1.13-1.3-1.66-2a.58.58 0 0 1 .13-.83.59.59 0 0 1 .83.12z"/><path d="M94.38 106.2c.18.36 0 .55-.14.8a7.94 7.94 0 0 1-.34.72c-.22.48-.48 1-.73 1.42a20.62 20.62 0 0 1-1.76 2.68 13.48 13.48 0 0 1-2.25 2.28 8.65 8.65 0 0 1-2.82 1.47.09.09 0 0 1-.12-.06.09.09 0 0 1 0-.11 10.74 10.74 0 0 0 4.48-4.07 24 24 0 0 0 1.51-2.66c.21-.47.43-.93.62-1.41.1-.23.2-.47.29-.71s.08-.52.47-.64a.62.62 0 0 1 .79.29z"/><path d="M88.55 104.72a1.21 1.21 0 0 1 .28-1.27 7.07 7.07 0 0 1 5.08-1.75c2.79 0 4.19 1 4.83 1.66a1.18 1.18 0 0 1 .2 1.28 1.65 1.65 0 0 1-1.45 1 3.22 3.22 0 0 0-2.61 1.27 1.15 1.15 0 0 1-.14.17 1.42 1.42 0 0 1-2-.11s-.58-1-2.72-1.16a1.65 1.65 0 0 1-1.41-1.08zm12.78 3.61a43.77 43.77 0 0 1 7.21-.84 36.55 36.55 0 0 1 7.24.44 24.41 24.41 0 0 1 6.89 2.19 16.86 16.86 0 0 1 5.61 4.48 16.69 16.69 0 0 0-5.7-4.3 23.46 23.46 0 0 0-6.86-2 40.25 40.25 0 0 0-14.22.78.39.39 0 0 1-.47-.3.4.4 0 0 1 .3-.48zm13.78-3.93a40.92 40.92 0 0 0-12 2.2.39.39 0 0 1-.5-.24.39.39 0 0 1 .24-.51 41.12 41.12 0 0 1 12.26-1.45zm-12.69 5.78a10.22 10.22 0 0 1 3.74.07 12.56 12.56 0 0 1 3.42 1.37 17.75 17.75 0 0 1 2.92 2.18 20 20 0 0 1 2.44 2.68 19.81 19.81 0 0 0-2.57-2.53 17.73 17.73 0 0 0-3-2 12.34 12.34 0 0 0-3.34-1.14 9.36 9.36 0 0 0-3.46.13.4.4 0 0 1-.47-.3.41.41 0 0 1 .31-.48zm-15.18.15c-2.39-.47-4.76-.93-7.17-1.21a39.72 39.72 0 0 0-7.23-.24 22.07 22.07 0 0 0-7 1.56 14.11 14.11 0 0 0-5.72 4.34 14.09 14.09 0 0 1 5.64-4.52 22.19 22.19 0 0 1 7.09-1.77 38.92 38.92 0 0 1 7.32 0c2.44.21 4.86.61 7.25 1a.41.41 0 0 1 .33.46.41.41 0 0 1-.46.33zm-13.93-4.68a21.48 21.48 0 0 1 12.51 1.51.39.39 0 0 1 .21.52.4.4 0 0 1-.53.21 21.17 21.17 0 0 0-12.19-2.24zm12.89 6.58a7.82 7.82 0 0 0-3.44-.11 11.51 11.51 0 0 0-3.28 1.34 17.72 17.72 0 0 0-2.87 2.19 21.53 21.53 0 0 0-2.45 2.68 20.82 20.82 0 0 1 2.32-2.82 16.72 16.72 0 0 1 2.79-2.38 11.66 11.66 0 0 1 3.36-1.59 8.56 8.56 0 0 1 3.77-.09.4.4 0 0 1-.15.79z"/></g><path d="M89.76 122.84s.63 5.76 5.47 5.29c4.67-.45 4.89-5.89 4.89-5.89a6.28 6.28 0 0 1-4.58 2.76c-3.03.17-5.78-2.16-5.78-2.16z" fill="#595959" opacity=".2"/><path d="M100.32 122a4.89 4.89 0 0 1-.63 1.58 5.56 5.56 0 0 1-1.21 1.26 6.33 6.33 0 0 1-1.55.8 6.49 6.49 0 0 1-5.06-.48 5.8 5.8 0 0 1-2.39-2.34.2.2 0 0 1 .09-.27.19.19 0 0 1 .24 0 7.13 7.13 0 0 0 5.35 2.16 6 6 0 0 0 2.75-.78 5.5 5.5 0 0 0 2-2.1.2.2 0 0 1 .27-.08.19.19 0 0 1 .14.25z" fill="#31323d"/><path d="M113.75 84.56c-3.83.93-8.92 4.52-10.35 16.64 0 0 8.94 7.27 16.36-2 3.94-4.92 3.28-8.76 1.79-11.29a7.09 7.09 0 0 0-7.8-3.35z" fill="#fff"/><g clip-path="url(#m)"><circle cx="110.84" cy="97.2" fill="#37f0f5" r="6.83"/><circle cx="110.62" cy="97.31" fill="#31323d" r="5.19"/><circle cx="113.8" cy="92.86" fill="#fff" r="3.01"/></g><path d="M113.75 84.56c-3.83.93-8.92 4.52-10.35 16.64 0 0 8.94 7.27 16.36-2 3.94-4.92 3.28-8.76 1.79-11.29a7.09 7.09 0 0 0-7.8-3.35z" fill="none" stroke="#31323d" stroke-linecap="round" stroke-miterlimit="10" stroke-width=".773"/><path d="M122.48 94.49s3.48-5.71 3.45-8.67c0 0-1.74 1.2-3 .92l.77-1.74-4.15.33a7.93 7.93 0 0 1 2.93 9.16z" fill="#31323d"/><path d="M73 85.87c3.83.94 8.92 4.52 10.34 16.64 0 0-8.93 7.28-16.35-2-3.94-4.92-3.28-8.77-1.79-11.29a7.1 7.1 0 0 1 7.8-3.35z" fill="#fff"/><g clip-path="url(#n)"><circle cx="75.92" cy="98.51" fill="#37f0f5" r="6.83"/><circle cx="75.7" cy="98.62" fill="#31323d" r="5.19"/><circle cx="78.88" cy="94.17" fill="#fff" r="3.01"/></g><path d="M73 85.87c3.83.94 8.92 4.52 10.34 16.64 0 0-8.93 7.28-16.35-2-3.94-4.92-3.28-8.77-1.79-11.29a7.1 7.1 0 0 1 7.8-3.35z" fill="none" stroke="#31323d" stroke-linecap="round" stroke-miterlimit="10" stroke-width=".773"/><path d="M64.28 95.81s-3.49-5.72-3.45-8.68c0 0 1.73 1.21 3 .92l-.77-1.73 4.14.32a7.93 7.93 0 0 0-2.92 9.17z" fill="#31323d"/></g></svg>