<svg xmlns="http://www.w3.org/2000/svg" xmlns:xlink="http://www.w3.org/1999/xlink" width="64" height="64" style=""><rect id="backgroundrect" width="100%" height="100%" x="0" y="0" fill="none" stroke="none" style="" class=""/><defs><style>.cls-1{fill:none}.cls-2{fill:url(#linear-gradient)}.cls-3,.cls-5{fill:#fff}.cls-4{clip-path:url(#clip-path)}.cls-5{opacity:.2}.cls-6{fill:url(#linear-gradient-2)}.cls-7{fill:url(#linear-gradient-3)}</style><linearGradient id="linear-gradient" x1="57.54999923706055" y1="4.400000095367432" x2="-0.6700000166893005" y2="90.08000183105469" gradientUnits="userSpaceOnUse"><stop offset="0" stop-color="#1abc9c"/><stop offset="1" stop-color="#1a5daf"/></linearGradient><clipPath id="clip-path"><circle class="cls-1" cx="36.7599983215332" cy="35" r="32" id="svg_1"/></clipPath><linearGradient id="linear-gradient-2" x1="36.720001220703125" y1="3.359999895095825" x2="27.739999771118164" y2="63.33000183105469" xlink:href="#linear-gradient"/><linearGradient id="linear-gradient-3" x1="46.31999969482422" y1="4.800000190734863" x2="37.33000183105469" y2="64.7699966430664" xlink:href="#linear-gradient"/></defs><title>MyEtherWalelt Logo</title><g class="currentLayer" style=""><title>Layer 1</title><circle class="cls-2 selected" cx="32" cy="32" r="31.999998092651367" id="svg_2"/><g class="cls-4 selected" id="svg_3"><path class="cls-5" d="M60.97000503540039,32.27000045776367 L50.95000076293945,56.79999923706055 l-5.300000190734863,-12.520000457763672 l4.829999923706055,-11.8100004196167 h-2.609999895095825 l-3.940000057220459,9.819999694824219 l-3.9000000953674316,-9.819999694824219 h-2.569999933242798 l4.829999923706055,11.8100004196167 l-5.260000228881836,12.520000457763672 l-10.0600004196167,-24.530000686645508 l-5.050000190734863,-11.899999618530273 l5.199999809265137,-12.520000457763672 L37.1400032043457,32.380001068115234 h2.9600000381469727 L28.37000274658203,4.699999809265137 h-2.4200000762939453 L20.14000129699707,18.280000686645508 L14.290000915527344,4.699999809265137 h-2.380000114440918 L0.21000146865844727,32.380001068115234 H3.1400017738342285 l10.0600004196167,-24.530000686645508 l5.260000228881836,12.520000457763672 l-4.829999923706055,11.819999694824219 h2.569999933242798 l3.9000000953674316,-9.829999923706055 l3.940000057220459,9.90999984741211 l11.699999809265137,27.690000534057617 h2.380000114440918 l5.849999904632568,-13.6899995803833 l5.809999942779541,13.6899995803833 h2.4200000762939453 l11.729999542236328,-27.690000534057617 h-2.9600000381469727 z" id="svg_4"/><path class="cls-6" d="M34.34000015258789,44.5 a10.130000114440918,10.130000114440918 0 0 1 -2.3399999141693115,0.27000001072883606 c-5.579999923706055,0 -10.329999923706055,-4.25 -10.670000076293945,-10.5600004196167 a19.860000610351562,19.860000610351562 0 0 1 0.5699999928474426,-3.569999933242798 L13.240001678466797,27 a22.299999237060547,22.299999237060547 0 0 0 -1.3600000143051147,7.699999809265137 c0,10.819999694824219 9.270000457763672,19.59000015258789 20.09000015258789,19.59000015258789 A19.530000686645508,19.530000686645508 0 0 0 39.2400016784668,52.86000061035156 z" id="svg_5"/><path class="cls-7" d="M32,14 a19.520000457763672,19.520000457763672 0 0 0 -8.149999618530273,1.7699999809265137 l4.860000133514404,8.260000228881836 a10.09000015258789,10.09000015258789 0 0 1 3.2899999618530273,-0.550000011920929 c4.940000057220459,0 10.180000305175781,4.139999866485596 10.680000305175781,9.239999771118164 l-14.050000190734863,0.05999999865889549 L50.540000915527344,42.099998474121094 a20,20 0 0 0 1.5199999809265137,-8.319999694824219 C52.060001373291016,23 42.820003509521484,14 32,14 z" id="svg_6"/><path class="cls-3" d="M19.080001831054688,24.450000762939453 zM34.34000015258789,42.36000061035156 a10.130000114440918,10.130000114440918 0 0 1 -2.3399999141693115,0.27000001072883606 c-5.579999923706055,0 -10.329999923706055,-4.25 -10.670000076293945,-10.5600004196167 a19.860000610351562,19.860000610351562 0 0 1 0.5699999928474426,-3.569999933242798 L13.240001678466797,24.81999969482422 a22.299999237060547,22.299999237060547 0 0 0 -1.3600000143051147,7.699999809265137 c0,10.819999694824219 9.270000457763672,19.59000015258789 20.09000015258789,19.59000015258789 A19.530000686645508,19.530000686645508 0 0 0 39.2400016784668,50.720001220703125 zm-2.3399999141693115,-30.469999313354492 a19.520000457763672,19.520000457763672 0 0 0 -8.149999618530273,1.7699999809265137 l4.860000133514404,8.260000228881836 a10.09000015258789,10.09000015258789 0 0 1 3.2899999618530273,-0.550000011920929 c4.940000057220459,0 10.180000305175781,4.139999866485596 10.680000305175781,9.239999771118164 l-14.050000190734863,0.05999999865889549 L50.540000915527344,40 a20,20 0 0 0 1.5199999809265137,-8.319999694824219 c0,-10.859999656677246 -9.239999771118164,-19.790000915527344 -20.059999465942383,-19.790000915527344 z" id="svg_7"/></g></g></svg>